<svg xmlns="http://www.w3.org/2000/svg" viewBox="0 0 75.6 99.53"><defs><style>.cls-1{fill:#f1f3f2;}</style></defs><title>icon-polkadot-light</title><g id="Layer_2" data-name="Layer 2"><g id="Layer_1-2" data-name="Layer 1"><path class="cls-1" d="M37.8,0A37.83,37.83,0,0,0,0,37.8,39.6,39.6,0,0,0,2,50.1a5.33,5.33,0,0,0,6.7,3.3A5.33,5.33,0,0,0,12,46.7,26.63,26.63,0,0,1,10.5,37,27.31,27.31,0,1,1,39.4,65s-5.3.3-7.9.7c-1.3.2-2.3.4-3,.5a.4.4,0,0,1-.5-.5l.9-4.4,4.9-22.6a5.22,5.22,0,0,0-10.2-2.2s-11.8,55-11.9,55.6a5.22,5.22,0,1,0,10.2,2.2c.1-.6,1.7-7.9,1.7-7.9A13.28,13.28,0,0,1,34.8,76c1.2-.2,5.9-.5,5.9-.5A37.81,37.81,0,0,0,37.8,0Zm2.7,87a6.33,6.33,0,1,0,4.9,7.5A6.29,6.29,0,0,0,40.5,87Z"/></g></g></svg>