<svg xmlns="http://www.w3.org/2000/svg" xmlns:xlink="http://www.w3.org/1999/xlink" viewBox="0 0 476.84 197.71"><defs><style>.cls-1{fill:#fff;}.cls-2{mask:url(#mask);}.cls-3{fill:#282828;}.cls-4{mask:url(#mask-2-2);}.cls-5{mask:url(#mask-3);}.cls-6{mask:url(#mask-4-2);}</style><mask id="mask" x="139.15" y="153.44" width="27.36" height="44.26" maskUnits="userSpaceOnUse"><g id="mask-2"><polygon id="path-1" class="cls-1" points="139.15 153.44 166.51 153.44 166.51 197.71 139.15 197.71 139.15 153.44"/></g></mask><mask id="mask-2-2" x="260.12" y="153.48" width="29.03" height="44.1" maskUnits="userSpaceOnUse"><g id="mask-4"><polygon id="path-3" class="cls-1" points="260.12 153.48 289.15 153.48 289.15 197.58 260.12 197.58 260.12 153.48"/></g></mask><mask id="mask-3" x="3.47" y="5.56" width="182.77" height="175.87" maskUnits="userSpaceOnUse"><g id="mask-6"><polygon id="path-5" class="cls-1" points="50.89 85.76 139.41 85.76 139.41 59.53 50.89 59.53 50.89 85.76"/></g></mask><mask id="mask-4-2" x="3.47" y="5.56" width="182.77" height="175.87" maskUnits="userSpaceOnUse"><g id="mask-8"><polygon id="path-7" class="cls-1" points="50.89 131.66 139.41 131.66 139.41 105.43 50.89 105.43 50.89 131.66"/></g></mask></defs><title>Asset 38</title><g id="Layer_2" data-name="Layer 2"><g id="Layer_1-2" data-name="Layer 1"><g id="Variation-2"><g id="Logotype"><g id="Group-3"><g class="cls-2"><path id="Fill-1" class="cls-3" d="M152.85,158.3a21.87,21.87,0,0,0-3.16.22,5.81,5.81,0,0,0-5.13,5.82v12.43c0,3,2.5,5.46,6,5.73.79.06,1.59.09,2.35.09s1.44,0,2.12-.09c3.58-.27,5.77-2.25,6.16-5.56a70.42,70.42,0,0,0,0-13.07,5.85,5.85,0,0,0-5-5.34A24.47,24.47,0,0,0,152.85,158.3Zm-9.1,39.41c-1.59,0-4.6-.87-4.6-4.13v-31c0-3.13,2.35-5.83,3.93-6.89a16,16,0,0,1,6.12-2,35.37,35.37,0,0,1,4.09-.27,19.94,19.94,0,0,1,4.64.5c4.54,1,7.3,4,8.2,8.69a19.94,19.94,0,0,1,.33,3.64v1.17c0,2.65.08,5.39,0,8.08a16.86,16.86,0,0,1-1,4.91c-1.37,3.68-4.16,5.93-8.32,6.7a20,20,0,0,1-3.58.32,24.22,24.22,0,0,1-3.12-.22,8.38,8.38,0,0,1-6.07-3.46v13.94Z"/></g></g><g id="Group-6"><g class="cls-4"><path id="Fill-4" class="cls-3" d="M267.76,197.58a3.66,3.66,0,0,1-.65,0l-.78-.11,4.6-11.09a4.3,4.3,0,0,0,.45-2.76c-2.77-6.85-5.41-13.45-8.1-20.17l-2.62-6.56c-.47-1.17-.75-2-.34-2.57s1.28-.6,2.47-.6a2.53,2.53,0,0,1,2.69,2c.63,1.58,7.78,19.61,9.11,22.91l9.14-22.72a3.3,3.3,0,0,1,3-2.39,3.61,3.61,0,0,1,1.42.31,1.32,1.32,0,0,1,.93,1.74l-15.35,38a6.31,6.31,0,0,1-6,4"/></g></g><path id="Fill-7" class="cls-3" d="M185.41,171.72c-2,0-3.81.06-5.11.18-3.33.3-4.6,1.54-4.7,4.59,0,.75,0,1.35,0,1.88a4,4,0,0,0,4.21,4.13c.94,0,1.71.05,2.45.05s1.53,0,2.22-.06a8.26,8.26,0,0,0,6.69-3.89c1-1.53,1-3.21,1-5,0-.3,0-.6,0-.91a4.35,4.35,0,0,0,0-.71,5.71,5.71,0,0,0-.78-.08C189.69,171.79,187.48,171.72,185.41,171.72ZM196.6,187.4c-1.54,0-4.44-.87-4.44-4.16V183l-.08.08a10.75,10.75,0,0,1-8.31,4.26q-.71,0-1.44,0a28,28,0,0,1-4.36-.31,8.32,8.32,0,0,1-7.07-6.2,12.81,12.81,0,0,1,0-7.36,7.74,7.74,0,0,1,6.91-5.9,68,68,0,0,1,7.88-.42c2,0,4,.07,5.7.2l.39,0a.81.81,0,0,0,.37-.05,4.32,4.32,0,0,0,0-.89,33.88,33.88,0,0,0-.54-5c-.3-1.49-1.33-2.41-3.14-2.82a16.14,16.14,0,0,0-3.64-.42,11.2,11.2,0,0,0-8.56,3.49,2.62,2.62,0,0,1-1.8,1.14,1.38,1.38,0,0,1-.73-.22,12,12,0,0,1-2-1.55c-.34-.33-.5-1.05.21-2a14.4,14.4,0,0,1,6.62-4.68,20.49,20.49,0,0,1,6.34-.92,23.84,23.84,0,0,1,5,.51,8.34,8.34,0,0,1,6.72,6.37,22.47,22.47,0,0,1,.65,4.59c.26,6,0,21.67,0,21.83v.6Z"/><path id="Fill-9" class="cls-3" d="M208.54,187.4c-1.57,0-4.52-.85-4.52-4.08V153.56h.63c1.59,0,4.59.81,4.59,3.89v.06l0,0a16.34,16.34,0,0,1,2.94-2.36,10.7,10.7,0,0,1,5.73-1.49,16.12,16.12,0,0,1,2,.13,13.62,13.62,0,0,1,3.13.67,1.48,1.48,0,0,1,1.05,2,6.77,6.77,0,0,1-.67,1.4l0,.07a1.46,1.46,0,0,1-1.31.85,4.64,4.64,0,0,1-1-.15,15.23,15.23,0,0,0-3.28-.38,9.67,9.67,0,0,0-3.74.67,17,17,0,0,0-2.9,1.57,4.43,4.43,0,0,0-2,4.13c0,3.28,0,7.63,0,11.83,0,3.92,0,7.72,0,10.39v.61Z"/><path id="Fill-11" class="cls-3" d="M232.81,186.92c-1.56,0-4.52-.77-4.52-3.68V153.46h.64a4.41,4.41,0,0,1,4.5,4.49v29Z"/><path id="Fill-13" class="cls-3" d="M248.22,186.92c-1.5,0-4.33-.77-4.33-3.68V159H240.1c-.76,0-1.17-.86-1.17-1.49V155c0-.64.39-1,1.17-1h3.79v-9.2h.62c1.5,0,4.34.56,4.34,3.68v5.52h7.37c1.08,0,1.31.53,1.31,1v2.45a1.54,1.54,0,0,1-1.31,1.49h-7.37v28Z"/><path id="Fill-15" class="cls-3" d="M230.85,147a3.53,3.53,0,1,1,3.56-3.53,3.55,3.55,0,0,1-3.56,3.53"/></g><g id="_11-Line-Logo-Thin" data-name="11-Line-Logo-Thin"><g id="Rotated-Red"><g id="Red"><polygon id="Path-2" class="cls-3" points="0.66 75.77 0 74.71 119.56 0 120.22 1.06 0.66 75.77"/><polygon id="Path-2-2" data-name="Path-2" class="cls-3" points="7.61 86.89 6.95 85.83 126.51 11.12 127.17 12.18 7.61 86.89"/><polygon id="Path-2-3" data-name="Path-2" class="cls-3" points="14.56 98.01 13.9 96.95 133.46 22.24 134.12 23.3 14.56 98.01"/><polygon id="Path-2-4" data-name="Path-2" class="cls-3" points="21.51 109.14 20.85 108.08 140.41 33.37 141.07 34.43 21.51 109.14"/><polygon id="Path-2-5" data-name="Path-2" class="cls-3" points="28.46 120.26 27.8 119.2 147.36 44.49 148.02 45.55 28.46 120.26"/><polygon id="Path-2-6" data-name="Path-2" class="cls-3" points="35.41 131.38 34.75 130.32 154.31 55.61 154.97 56.67 35.41 131.38"/><polygon id="Path-2-7" data-name="Path-2" class="cls-3" points="42.36 142.5 41.7 141.44 161.26 66.73 161.92 67.79 42.36 142.5"/><polygon id="Path-2-8" data-name="Path-2" class="cls-3" points="49.31 153.62 48.65 152.56 168.21 77.85 168.87 78.91 49.31 153.62"/><polygon id="Path-2-9" data-name="Path-2" class="cls-3" points="56.26 164.75 55.6 163.69 175.16 88.98 175.82 90.04 56.26 164.75"/><polygon id="Path-2-10" data-name="Path-2" class="cls-3" points="63.21 175.87 62.55 174.81 182.11 100.1 182.77 101.16 63.21 175.87"/><polygon id="Path-2-11" data-name="Path-2" class="cls-3" points="70.16 186.99 69.5 185.93 189.06 111.22 189.72 112.28 70.16 186.99"/></g></g><g id="Rotated-Blue-Top"><g class="cls-5"><g id="Rotated-Blue"><g id="Blue"><polygon id="Path-2-12" data-name="Path-2" class="cls-3" points="4.14 81.33 3.48 80.27 123.04 5.56 123.7 6.62 4.14 81.33"/><polygon id="Path-2-13" data-name="Path-2" class="cls-3" points="11.09 92.45 10.43 91.39 129.99 16.68 130.65 17.74 11.09 92.45"/><polygon id="Path-2-14" data-name="Path-2" class="cls-3" points="18.04 103.58 17.37 102.52 136.94 27.8 137.6 28.86 18.04 103.58"/><polygon id="Path-2-15" data-name="Path-2" class="cls-3" points="24.99 114.7 24.32 113.64 143.88 38.93 144.55 39.99 24.99 114.7"/><polygon id="Path-2-16" data-name="Path-2" class="cls-3" points="31.94 125.82 31.27 124.76 150.84 50.05 151.5 51.11 31.94 125.82"/><polygon id="Path-2-17" data-name="Path-2" class="cls-3" points="38.89 136.94 38.22 135.88 157.78 61.17 158.45 62.23 38.89 136.94"/><polygon id="Path-2-18" data-name="Path-2" class="cls-3" points="45.84 148.06 45.17 147 164.73 72.29 165.4 73.35 45.84 148.06"/><polygon id="Path-2-19" data-name="Path-2" class="cls-3" points="52.79 159.19 52.12 158.12 171.68 83.42 172.35 84.47 52.79 159.19"/><polygon id="Path-2-20" data-name="Path-2" class="cls-3" points="59.73 170.31 59.07 169.25 178.63 94.54 179.3 95.6 59.73 170.31"/><polygon id="Path-2-21" data-name="Path-2" class="cls-3" points="66.69 181.43 66.02 180.37 185.58 105.66 186.25 106.72 66.69 181.43"/></g></g></g></g><g id="Rotated-Blue-Bottom"><g id="Rotated-Blue-2" data-name="Rotated-Blue"><g class="cls-6"><g id="Blue-2" data-name="Blue"><polygon id="Path-2-22" data-name="Path-2" class="cls-3" points="4.14 81.33 3.48 80.27 123.04 5.56 123.7 6.62 4.14 81.33"/><polygon id="Path-2-23" data-name="Path-2" class="cls-3" points="11.09 92.45 10.43 91.39 129.99 16.68 130.65 17.74 11.09 92.45"/><polygon id="Path-2-24" data-name="Path-2" class="cls-3" points="18.04 103.58 17.37 102.52 136.94 27.8 137.6 28.86 18.04 103.58"/><polygon id="Path-2-25" data-name="Path-2" class="cls-3" points="24.99 114.7 24.32 113.64 143.88 38.93 144.55 39.99 24.99 114.7"/><polygon id="Path-2-26" data-name="Path-2" class="cls-3" points="31.94 125.82 31.27 124.76 150.84 50.05 151.5 51.11 31.94 125.82"/><polygon id="Path-2-27" data-name="Path-2" class="cls-3" points="38.89 136.94 38.22 135.88 157.78 61.17 158.45 62.23 38.89 136.94"/><polygon id="Path-2-28" data-name="Path-2" class="cls-3" points="45.84 148.06 45.17 147 164.73 72.29 165.4 73.35 45.84 148.06"/><polygon id="Path-2-29" data-name="Path-2" class="cls-3" points="52.79 159.19 52.12 158.12 171.68 83.42 172.35 84.47 52.79 159.19"/><polygon id="Path-2-30" data-name="Path-2" class="cls-3" points="59.73 170.31 59.07 169.25 178.63 94.54 179.3 95.6 59.73 170.31"/><polygon id="Path-2-31" data-name="Path-2" class="cls-3" points="66.69 181.43 66.02 180.37 185.58 105.66 186.25 106.72 66.69 181.43"/></g></g></g></g></g></g><path class="cls-3" d="M339.58,165.61V175c0,7.67-4.79,12.06-11.61,12.06h-2.36c-4.92,0-7.6-2-8.92-5.37v4.06a.87.87,0,0,1-1,1h-1.25a.87.87,0,0,1-1-1V141.8a.87.87,0,0,1,1-1h1.25a.86.86,0,0,1,1,1v16.86c1.32-3.28,4-5,8.92-5H328C334.79,153.67,339.58,157.8,339.58,165.61Zm-3.21.2c0-6.1-3-9-8.46-9h-2.76c-5.44,0-8.46,2.89-8.46,9v9.44c0,5.64,3,8.66,8.46,8.66h2.76c5.44,0,8.46-3,8.46-8.66Z"/><path class="cls-3" d="M348.11,153.94h1.24a.87.87,0,0,1,1,1v30.82a.88.88,0,0,1-1,1h-1.24a.88.88,0,0,1-1-1V154.92A.87.87,0,0,1,348.11,153.94Zm.13-13.12h1.05a.87.87,0,0,1,1,1v1.45a.87.87,0,0,1-1,1h-1.05a.87.87,0,0,1-1-1V141.8A.87.87,0,0,1,348.24,140.82Z"/><path class="cls-3" d="M364.31,157v19.41c0,5.18,1.24,7.28,5.64,7.41.59-.06.85.39.85,1l-.07,1.12a.87.87,0,0,1-.92.92c-6.42-.13-8.72-3.48-8.72-10.3V157h-3.54a.87.87,0,0,1-1-1V155c0-.72.32-1,1-1h3.54v-3.81a.87.87,0,0,1,1-1h1.24a.87.87,0,0,1,1,1v3.81h5.5c.73,0,1.05.32,1.05,1V156a.87.87,0,0,1-1,1Z"/><path class="cls-3" d="M398,162.92c-.72-4.07-3.6-6.1-7.54-6.1h-2.23c-5.44,0-8.46,3-8.46,8.92v9.84c0,5.31,3,8.33,8.46,8.33h2.17c4.59,0,6-1.84,8.06-4.33.46-.53.73-.66,1.32-.26l.91.72a.83.83,0,0,1,.2,1.37c-2.36,2.89-4.46,5.64-10.49,5.64h-2.17c-6.88,0-11.8-4.32-11.8-11.67v-9.77c0-7.74,4.92-11.87,11.8-11.87h2.23a10.5,10.5,0,0,1,10.89,9,.74.74,0,0,1-.79,1h-1.51C398.47,163.77,398.21,163.45,398,162.92Z"/><path class="cls-3" d="M433.23,165.61V175c0,7.67-4.79,12.06-11.74,12.06h-2.82c-6.88,0-11.67-4.39-11.67-12.06v-9.38c0-7.81,4.79-11.94,11.67-11.94h2.82C428.44,153.67,433.23,157.8,433.23,165.61Zm-3.28.2c0-6.1-2.95-9.05-8.46-9.05h-2.82c-5.44,0-8.46,3-8.46,9.05v9.44c0,5.64,3,8.66,8.46,8.66h2.82c5.51,0,8.46-3,8.46-8.66Z"/><path class="cls-3" d="M441.76,153.94H443a.87.87,0,0,1,1,1v30.82a.88.88,0,0,1-1,1h-1.24a.88.88,0,0,1-1-1V154.92A.87.87,0,0,1,441.76,153.94Zm.13-13.12h1.05a.87.87,0,0,1,1,1v1.45a.87.87,0,0,1-1,1h-1.05a.87.87,0,0,1-1-1V141.8A.87.87,0,0,1,441.89,140.82Z"/><path class="cls-3" d="M476.84,165.28v20.46a.87.87,0,0,1-1,1h-1.25a.87.87,0,0,1-1-1V165.48c0-5.71-1.31-8.72-7.15-8.72h-1.11a11.23,11.23,0,0,0-9.64,5.18v23.8a.88.88,0,0,1-1,1H453.5a.88.88,0,0,1-1-1V154.92a.87.87,0,0,1,1-1h1.24a.87.87,0,0,1,1,1v4.13a12,12,0,0,1,10.16-5.38h.53C474.22,153.67,476.84,157.61,476.84,165.28Z"/></g></g></svg>