<?xml version="1.0" encoding="UTF-8" standalone="no"?>
<!DOCTYPE svg PUBLIC "-//W3C//DTD SVG 1.1//EN" "http://www.w3.org/Graphics/SVG/1.1/DTD/svg11.dtd">
<svg width="100%" height="100%" viewBox="0 0 112 112" version="1.1" xmlns="http://www.w3.org/2000/svg" xmlns:xlink="http://www.w3.org/1999/xlink" xml:space="preserve" xmlns:serif="http://www.serif.com/" style="fill-rule:evenodd;clip-rule:evenodd;stroke-linejoin:round;stroke-miterlimit:1.41421;">
    <path d="M56,112C86.928,112 112,86.928 112,56C112,25.072 86.928,0 56,0C25.072,0 0,25.072 0,56C0,86.928 25.072,112 56,112ZM66.303,85.907C66.303,88.168 64.467,90 62.202,90C46.849,90 34.404,77.58 34.404,62.259C34.404,59.999 36.24,58.167 38.505,58.167C40.77,58.167 42.606,59.999 42.606,62.259C42.606,73.059 51.38,81.814 62.202,81.814C64.467,81.814 66.303,83.647 66.303,85.907ZM85.899,45.648C88.164,45.648 90,47.48 90,49.741C90,65.061 77.554,77.481 62.202,77.481C59.937,77.481 58.1,75.649 58.1,73.388C58.1,71.128 59.937,69.295 62.202,69.295C73.024,69.295 81.797,60.54 81.797,49.741C81.797,47.48 83.633,45.648 85.899,45.648ZM26.101,66.352C23.836,66.352 22,64.52 22,62.259C22,46.939 34.446,34.519 49.798,34.519C52.063,34.519 53.9,36.351 53.9,38.612C53.9,40.872 52.063,42.705 49.798,42.705C38.976,42.705 30.203,51.46 30.203,62.259C30.203,64.52 28.367,66.352 26.101,66.352ZM45.762,26.093C45.762,23.833 47.598,22 49.863,22C65.215,22 77.661,34.42 77.661,49.741C77.661,52.001 75.825,53.834 73.56,53.834C71.295,53.834 69.458,52.001 69.458,49.741C69.458,38.941 60.685,30.186 49.863,30.186C47.598,30.186 45.762,28.353 45.762,26.093Z" style="fill:rgb(40,40,40);"/>
</svg>
