<svg xmlns="http://www.w3.org/2000/svg" xmlns:xlink="http://www.w3.org/1999/xlink" viewBox="0 0 544.85 112"><defs><style>.cls-1{fill:#fff;}.cls-2{mask:url(#mask);}.cls-3{mask:url(#mask-2-2);}</style><mask id="mask" x="0" y="29.98" width="36.48" height="59.02" maskUnits="userSpaceOnUse"><g id="mask-2"><polygon id="path-1" class="cls-1" points="0 29.98 36.48 29.98 36.48 89 0 89 0 29.98"/></g></mask><mask id="mask-2-2" x="161.3" y="30.03" width="38.7" height="58.8" maskUnits="userSpaceOnUse"><g id="mask-4"><polygon id="path-3" class="cls-1" points="161.3 30.03 200 30.03 200 88.83 161.3 88.83 161.3 30.03"/></g></mask></defs><title>parity-heart-rust</title><g id="Layer_2" data-name="Layer 2"><g id="Layer_1-2" data-name="Layer 1"><g id="Page-1"><g id="Group-3"><g class="cls-2"><path id="Fill-1" class="cls-1" d="M18.27,36.46a29.22,29.22,0,0,0-4.22.29,7.74,7.74,0,0,0-6.84,7.76V61.08c0,4.07,3.34,7.28,7.94,7.64,1.06.08,2.12.12,3.14.12s1.91,0,2.82-.11c4.78-.37,7.69-3,8.22-7.42a94.81,94.81,0,0,0,0-17.43c-.4-3.05-2.35-6.51-6.66-7.12A32.49,32.49,0,0,0,18.27,36.46ZM6.13,89C4,89,0,87.85,0,83.49V42.16C0,38,3.13,34.39,5.23,33a21.5,21.5,0,0,1,8.18-2.65A48.93,48.93,0,0,1,18.86,30a27.24,27.24,0,0,1,6.18.66C31.09,32,34.77,35.94,36,42.23a27.9,27.9,0,0,1,.43,4.85l0,1.57c.06,3.53.11,7.18-.06,10.77A22.22,22.22,0,0,1,35.08,66c-1.82,4.9-5.55,7.91-11.09,8.93a26.81,26.81,0,0,1-4.78.43A31.5,31.5,0,0,1,15.06,75,11.17,11.17,0,0,1,7,70.42V89Z"/></g></g><g id="Group-6"><g class="cls-3"><path id="Fill-4" class="cls-1" d="M171.48,88.83a5.61,5.61,0,0,1-.87,0l-1-.15,6.14-14.79c.45-1.09,1-2.67.59-3.68-3.68-9.13-7.2-17.92-10.79-26.9L162,34.52c-.62-1.56-1-2.63-.45-3.42s1.7-.8,3.3-.8c2.34,0,3,1.2,3.58,2.66.84,2.1,10.37,26.15,12.15,30.54l12.18-30.28c.84-2.06,2.26-3.19,4-3.19a5,5,0,0,1,1.9.41,1.77,1.77,0,0,1,1.24,2.33L179.42,83.49a8.41,8.41,0,0,1-7.94,5.34"/></g></g><path id="Fill-7" class="cls-1" d="M61.68,54.35c-2.72,0-5.08.08-6.81.24-4.44.4-6.14,2.06-6.27,6.12a25,25,0,0,0,0,2.51c.24,3.41,2.23,5.36,5.61,5.5,1.25,0,2.29.07,3.27.07s2,0,3-.08a11,11,0,0,0,8.92-5.18c1.38-2,1.33-4.29,1.28-6.67,0-.41,0-.81,0-1.21a6.06,6.06,0,0,0-.06-.95,7,7,0,0,0-1-.11C67.38,54.44,64.45,54.35,61.68,54.35ZM76.61,75.26c-2.06,0-5.94-1.16-5.94-5.55,0-.1,0-.2,0-.29l-.11.12C68.4,72.78,64,75.06,59.5,75.22c-.64,0-1.28,0-1.92,0a37.36,37.36,0,0,1-5.82-.42,11.11,11.11,0,0,1-9.43-8.26,17.16,17.16,0,0,1,0-9.81,10.32,10.32,0,0,1,9.22-7.88A90.73,90.73,0,0,1,62,48.34c2.65,0,5.35.09,7.6.26a4.79,4.79,0,0,0,.52,0,1.53,1.53,0,0,0,.5,0,6.74,6.74,0,0,0,0-1.2,45.85,45.85,0,0,0-.73-6.71c-.4-2-1.77-3.2-4.18-3.76a21.68,21.68,0,0,0-4.85-.56A14.91,14.91,0,0,0,49.46,41a3.56,3.56,0,0,1-2.4,1.51,1.81,1.81,0,0,1-1-.29,15.81,15.81,0,0,1-2.72-2.07c-.46-.44-.66-1.4.28-2.64a19.09,19.09,0,0,1,8.83-6.24,27.3,27.3,0,0,1,8.45-1.22,31.9,31.9,0,0,1,6.63.67,11.14,11.14,0,0,1,9,8.5,29.58,29.58,0,0,1,.88,6.11c.35,8,.06,28.9.05,29.11v.81Z"/><path id="Fill-9" class="cls-1" d="M92.51,75.26c-2.08,0-6-1.14-6-5.45V30.13h.83c2.12,0,6.13,1.09,6.13,5.19v.08l.07-.07a21.42,21.42,0,0,1,3.91-3.14,14.28,14.28,0,0,1,7.64-2,21.72,21.72,0,0,1,2.74.18,17.94,17.94,0,0,1,4.17.89,2,2,0,0,1,1.4,2.66,8.82,8.82,0,0,1-.89,1.87l-.06.09A1.94,1.94,0,0,1,110.69,37a6.62,6.62,0,0,1-1.37-.2,19.92,19.92,0,0,0-4.38-.51,13,13,0,0,0-5,.89,23.13,23.13,0,0,0-3.88,2.1,5.88,5.88,0,0,0-2.67,5.51c0,4.37,0,10.16,0,15.77,0,5.23,0,10.3,0,13.85v.82Z"/><path id="Fill-11" class="cls-1" d="M124.88,74.62c-2.08,0-6-1-6-4.91V30l.84,0c2.08,0,6,1.35,6,6V74.62Z"/><path id="Fill-13" class="cls-1" d="M145.43,74.62c-2,0-5.78-1-5.78-4.91V37.34h-5c-1,0-1.57-1.16-1.57-2V32.08c0-.86.53-1.29,1.57-1.29h5V18.52h.83c2,0,5.78.75,5.78,4.91v7.36h9.84c1.43,0,1.73.7,1.73,1.29v3.27c0,.8-.73,2-1.73,2h-9.84V74.61Z"/><path id="Fill-15" class="cls-1" d="M122.27,21.4A4.7,4.7,0,1,1,127,16.7a4.72,4.72,0,0,1-4.75,4.7"/></g><path class="cls-1" d="M223.49,41a24.24,24.24,0,0,0,1,6.8A34.3,34.3,0,0,0,226.89,54a35.63,35.63,0,0,0,4.05,6q2.59,3.21,5,5.63t6.1,5.68q3.72,3.25,6.56,5.54t7.22,5.77q4.38,3.5,7.26,5.82,3.17-2.88,8.47-7.17l9.27-7.44q4-3.17,8.47-7.45a72.78,72.78,0,0,0,7.4-8,33.74,33.74,0,0,0,4.71-8.29A21.85,21.85,0,0,0,303,41a19.29,19.29,0,0,0-5.87-14.15A19.29,19.29,0,0,0,283,21a13,13,0,0,0-6.29,1.77,24.7,24.7,0,0,0-5.4,3.91A46.85,46.85,0,0,0,267,31.61a44.2,44.2,0,0,0-2.79,3.92c-.44.74-.78,1.33-1,1.76l-1-1.67a27.7,27.7,0,0,0-2.89-4q-2-2.37-4.33-4.8a21.86,21.86,0,0,0-5.58-4.09A13.55,13.55,0,0,0,243,21a18.62,18.62,0,0,0-13.92,5.82A19.67,19.67,0,0,0,223.49,41Z"/><path class="cls-1" d="M438.71,54.63,434,51.71l-.14-1.37,4.05-3.77a1.68,1.68,0,0,0-.54-2.7l-5.17-1.94-.4-1.33L435,36.12a1.69,1.69,0,0,0-1-2.55l-5.46-.88-.65-1.23,2.29-5a1.68,1.68,0,0,0-1.53-2.29l-5.53.2-.88-1.06,1.28-5.39a1.69,1.69,0,0,0-1.95-2l-5.39,1.27-1.06-.88.19-5.53A1.68,1.68,0,0,0,413,9.27l-5,2.29-1.22-.66-.89-5.45a1.69,1.69,0,0,0-2.55-1l-4.48,3.22-1.33-.4-1.93-5.17a1.69,1.69,0,0,0-2.71-.54l-3.77,4.05-1.37-.14L384.81.71a1.69,1.69,0,0,0-2.76,0l-2.91,4.71-1.37.14-3.78-4a1.68,1.68,0,0,0-2.7.54l-1.93,5.17-1.33.4L363.55,4.4a1.69,1.69,0,0,0-2.55,1l-.89,5.45-1.22.66-5-2.29a1.68,1.68,0,0,0-2.29,1.53l.19,5.53-1.06.88-5.39-1.27a1.68,1.68,0,0,0-1.95,2l1.27,5.39-.87,1.06-5.53-.2a1.69,1.69,0,0,0-1.54,2.29l2.3,5-.66,1.23-5.45.88a1.69,1.69,0,0,0-1.06,2.55l3.23,4.48-.41,1.33-5.17,1.94a1.68,1.68,0,0,0-.53,2.7l4,3.77-.13,1.37-4.71,2.92a1.68,1.68,0,0,0,0,2.75l4.71,2.91.13,1.37-4,3.78a1.68,1.68,0,0,0,.53,2.7l5.17,1.93.41,1.34-3.23,4.48a1.68,1.68,0,0,0,1.06,2.54l5.45.89.66,1.23-2.3,5a1.69,1.69,0,0,0,1.54,2.29l5.53-.19.87,1.06-1.27,5.39a1.69,1.69,0,0,0,1.95,1.95l5.39-1.27,1.06.87-.19,5.53a1.68,1.68,0,0,0,2.29,1.53l5-2.29,1.22.66.89,5.45a1.69,1.69,0,0,0,2.55,1.06l4.47-3.23,1.34.4,1.93,5.17a1.68,1.68,0,0,0,2.7.54l3.78-4,1.37.14,2.91,4.71a1.69,1.69,0,0,0,2.76,0l2.91-4.71,1.37-.14,3.77,4a1.68,1.68,0,0,0,2.7-.54l1.94-5.17,1.33-.4,4.48,3.23a1.69,1.69,0,0,0,2.55-1.06l.89-5.45,1.22-.66,5,2.29a1.68,1.68,0,0,0,2.29-1.53l-.19-5.53,1.06-.87,5.39,1.27a1.68,1.68,0,0,0,1.94-1.95l-1.27-5.39.88-1.06,5.53.19a1.68,1.68,0,0,0,1.53-2.29l-2.29-5,.65-1.23,5.46-.89a1.67,1.67,0,0,0,1-2.54l-3.23-4.48.41-1.34,5.17-1.93a1.68,1.68,0,0,0,.54-2.7l-4.05-3.78.14-1.37,4.7-2.91A1.67,1.67,0,0,0,438.71,54.63ZM379.92,13.2a3.33,3.33,0,1,1,6.66,0h0a3.33,3.33,0,0,1-6.66,0ZM340.21,43.34a3.33,3.33,0,0,1,6.66,0h0a3.33,3.33,0,0,1-6.66,0ZM344,66.88a41.09,41.09,0,0,1-1.32-15.64l7.17-3.19a3,3,0,0,0,1.54-4l-1.48-3.34h5.81V66.88Zm17.92,23.37a3.33,3.33,0,1,1-3.33-3.33,3.33,3.33,0,0,1,3.33,3.33Zm46,3.48a3.33,3.33,0,1,1,3.33-3.33A3.33,3.33,0,0,1,407.91,93.73Zm4.74-9.36-7-1.52a3,3,0,0,0-3.6,2.34L400.34,93a41,41,0,0,1-34.18-.16L364.49,85a3,3,0,0,0-3.6-2.33L354,84.17a42,42,0,0,1-3.56-4.2h33.5c.38,0,.63-.07.63-.41V67.71c0-.34-.25-.41-.63-.41h-9.8V59.79h10.6c1,0,5.17.27,6.51,5.65.42,1.65,1.35,7,2,8.75.63,1.93,3.19,5.78,5.93,5.78h17.29A41.77,41.77,0,0,1,412.65,84.37ZM374.14,48.7V41H388c.71,0,5,.82,5,4.06,0,2.69-3.32,3.65-6,3.65Zm50.16,10h-4.2c-.43,0-.59.28-.59.69V61.3c0,4.55-2.57,5.54-4.81,5.79s-4.51-.9-4.81-2.2c-1.26-7.1-3.36-8.62-6.68-11.24,4.12-2.61,8.41-6.47,8.41-11.64,0-5.58-3.83-9.09-6.44-10.82a18.2,18.2,0,0,0-8.79-2.89H352.9a40.94,40.94,0,0,1,22.93-12.94L381,20.74a3,3,0,0,0,4.29.1L391,15.35a41,41,0,0,1,28.06,20l-3.93,8.87a3,3,0,0,0,1.54,4l7.56,3.36A40.2,40.2,0,0,1,424.3,58.68ZM423,46.82a3.33,3.33,0,1,1,3.33-3.33A3.33,3.33,0,0,1,423,46.82Z"/><path class="cls-1" d="M468,57.07a11.31,11.31,0,0,1-1.83,6.85,5.94,5.94,0,0,1-5,2.46,5,5,0,0,1-2.35-.54,4.4,4.4,0,0,1-1.63-1.55,6.06,6.06,0,0,1-.69-2.46,55.54,55.54,0,0,1-.2-5.59c0-.88,0-2.63,0-5.24s0-4.82,0-6.56V41.23H446V60.82q0,6.51,2.9,9.91c1.95,2.28,4.77,3.41,8.48,3.41a12.45,12.45,0,0,0,5.7-1.31A16,16,0,0,0,468,68.67v4.64h10.26V41.23H468Z"/><path class="cls-1" d="M512.62,56.67q-2.72-2.3-10.6-3.29l-1.8-.26a10.37,10.37,0,0,1-3.87-1,2.11,2.11,0,0,1-1.06-1.89A2.35,2.35,0,0,1,496.7,48a9.7,9.7,0,0,1,4.35-.75,26.5,26.5,0,0,1,5.79.69A39.36,39.36,0,0,1,513.2,50V42.23h0a63.24,63.24,0,0,0-6.79-1.34,43.21,43.21,0,0,0-6-.43q-7.21,0-10.71,2.46t-3.5,7.56q0,4.73,2.75,7.05t9.6,3.18l1.8.23A10.65,10.65,0,0,1,504.54,62a2.21,2.21,0,0,1,1.06,2,2.64,2.64,0,0,1-1.51,2.46,9.63,9.63,0,0,1-4.53.84,29,29,0,0,1-6.56-.75,29.9,29.9,0,0,1-6.27-2.23v7.79a55,55,0,0,0,7,1.49,44.52,44.52,0,0,0,6.59.51q7.5,0,11.28-2.58a8.69,8.69,0,0,0,3.78-7.7C515.34,60.59,514.44,58.2,512.62,56.67Z"/><path class="cls-1" d="M544.85,48.56V41.23H534.28V32.12H524v9.11h-5.1v7.33H524V62.17q0,6.08,2.52,8.62t8.63,2.52H544V66h-5.27c-1.76,0-2.93-.26-3.52-.77a4,4,0,0,1-.89-3V48.56Z"/></g></g></svg>