<svg xmlns="http://www.w3.org/2000/svg" viewBox="0 0 134.9 40"><defs><style>.cls-1{fill:#fff;}</style></defs><title>Asset 1</title><g id="Layer_2" data-name="Layer 2"><g id="livetype"><path class="cls-1" d="M125.4,0V1h2a11,11,0,0,1,1.8.2,7.49,7.49,0,0,1,1.6.5,5.56,5.56,0,0,1,2.4,2.4,4.94,4.94,0,0,1,.5,1.6,11,11,0,0,1,.2,1.8V32.4a13.66,13.66,0,0,1-.2,1.9,7.49,7.49,0,0,1-.5,1.6,7.1,7.1,0,0,1-1,1.4,7.1,7.1,0,0,1-1.4,1,4.94,4.94,0,0,1-1.6.5,11.08,11.08,0,0,1-1.9.2H7.5a11,11,0,0,1-1.8-.2,7.49,7.49,0,0,1-1.6-.5,7.1,7.1,0,0,1-1.4-1,7.1,7.1,0,0,1-1-1.4,4.94,4.94,0,0,1-.5-1.6A11,11,0,0,1,1,32.5V7.5a11,11,0,0,1,.2-1.8,7.49,7.49,0,0,1,.5-1.6,7.1,7.1,0,0,1,1-1.4,7.1,7.1,0,0,1,1.4-1,4.94,4.94,0,0,1,1.6-.5A11,11,0,0,1,7.5,1H125.4V0m0,0H7.5a13.55,13.55,0,0,0-2,.2A7,7,0,0,0,3.6.8,6.1,6.1,0,0,0,2,2,6.1,6.1,0,0,0,.8,3.6,7,7,0,0,0,.2,5.5a15,15,0,0,0-.2,2V32.4a13.55,13.55,0,0,0,.2,2,6,6,0,0,0,.6,1.9A5.23,5.23,0,0,0,2,38a6.1,6.1,0,0,0,1.6,1.2,6,6,0,0,0,1.9.6,13.55,13.55,0,0,0,2,.2H127.4a13.55,13.55,0,0,0,2-.2,6,6,0,0,0,1.9-.6,7.07,7.07,0,0,0,2.8-2.8,6,6,0,0,0,.6-1.9,13.55,13.55,0,0,0,.2-2V7.5a13.55,13.55,0,0,0-.2-2,6,6,0,0,0-.6-1.9A6.32,6.32,0,0,0,131.3.8a6,6,0,0,0-1.9-.6,13.55,13.55,0,0,0-2-.2h-2Z"/><path class="cls-1" d="M43.7,14.25a3.17,3.17,0,0,0,2.3-.9,2.86,2.86,0,0,0,.8-2.1v-.6H43.7v.9h2.2a1.6,1.6,0,0,1-.5,1,2.27,2.27,0,0,1-1.6.6,2.45,2.45,0,0,1-1.6-.6,2.41,2.41,0,0,1-.7-1.7,2.19,2.19,0,0,1,.7-1.7,2.27,2.27,0,0,1,1.6-.6,1.86,1.86,0,0,1,1.6.7l.1.1.7-.7-.1-.1a2.55,2.55,0,0,0-1-.7,2.77,2.77,0,0,0-1.3-.3,3.08,3.08,0,0,0-3.2,3.2,3.17,3.17,0,0,0,.9,2.3A2.41,2.41,0,0,0,43.7,14.25Z"/><polygon class="cls-1" points="51.4 13.15 48.7 13.15 48.7 11.45 51.1 11.45 51.1 10.55 48.7 10.55 48.7 8.85 51.4 8.85 51.4 7.95 47.7 7.95 47.7 14.15 51.4 14.15 51.4 13.15"/><polygon class="cls-1" points="54.6 14.15 54.6 8.85 56.3 8.85 56.3 7.95 52 7.95 52 8.85 53.7 8.85 53.7 14.15 54.6 14.15"/><rect class="cls-1" x="59.1" y="7.95" width="1" height="6.2"/><polygon class="cls-1" points="63.5 14.15 63.5 8.85 65.2 8.85 65.2 7.95 60.8 7.95 60.8 8.85 62.5 8.85 62.5 14.15 63.5 14.15"/><path class="cls-1" d="M70.7,14.25a3.08,3.08,0,0,0,3.2-3.2,3.2,3.2,0,1,0-6.4,0,3.08,3.08,0,0,0,3.2,3.2Zm-1.6-4.9a2.11,2.11,0,0,1,1.6-.6,2.45,2.45,0,0,1,1.6.6,2.35,2.35,0,0,1,.6,1.7,2.52,2.52,0,0,1-.6,1.7,2.11,2.11,0,0,1-1.6.6,2.45,2.45,0,0,1-1.6-.6,2.35,2.35,0,0,1-.6-1.7A2.52,2.52,0,0,1,69.1,9.35Z"/><polygon class="cls-1" points="75.7 10.25 75.7 9.45 78.6 14.05 78.6 14.15 79.6 14.15 79.6 7.95 78.6 7.95 78.6 11.55 78.6 12.35 75.8 7.95 74.7 7.95 74.7 14.15 75.7 14.15 75.7 10.25"/><path class="cls-1" d="M47,24.05v1.8h4.3a3.78,3.78,0,0,1-1,2.3,4.43,4.43,0,0,1-3.3,1.3,4.66,4.66,0,0,1-4.7-4.8,4.72,4.72,0,0,1,4.7-4.8,5,5,0,0,1,3.3,1.3l1.3-1.3a6.41,6.41,0,0,0-4.5-1.8,6.75,6.75,0,0,0-6.7,6.6,6.75,6.75,0,0,0,6.7,6.6,5.75,5.75,0,0,0,4.6-1.9,6,6,0,0,0,1.6-4.2,3.75,3.75,0,0,0-.1-1.1Z"/><polygon class="cls-1" points="123 23.05 120.9 28.45 120.8 28.45 118.6 23.05 116.6 23.05 119.9 30.65 118 34.85 120 34.85 125.1 23.05 123 23.05"/><rect class="cls-1" x="81.9" y="18.55" width="1.9" height="12.5"/><path class="cls-1" d="M112.7,22.75a3.36,3.36,0,0,0-3.3,1.9l1.7.7a1.77,1.77,0,0,1,1.7-.9,1.88,1.88,0,0,1,2,1.6v.1a4,4,0,0,0-1.9-.5c-1.8,0-3.6,1-3.6,2.8a2.93,2.93,0,0,0,3.1,2.8,2.81,2.81,0,0,0,2.4-1.2h.1v1h1.8v-4.8A3.77,3.77,0,0,0,112.7,22.75Zm-.3,6.9c-.6,0-1.5-.3-1.5-1.1,0-1,1.1-1.3,2-1.3a3.87,3.87,0,0,1,1.7.4A2.26,2.26,0,0,1,112.4,29.65Z"/><path class="cls-1" d="M78.8,23.75h0a3.29,3.29,0,0,0-2.3-1,4.3,4.3,0,0,0-4.1,4.3,4.14,4.14,0,0,0,4.1,4.2,2.87,2.87,0,0,0,2.2-1h.1v.6a2.27,2.27,0,0,1-4.4,1l-1.6.7a4.13,4.13,0,0,0,3.8,2.5c2.2,0,4-1.3,4-4.4v-7.6H78.8Zm-2.1,5.9a2.61,2.61,0,0,1,0-5.2,2.41,2.41,0,0,1,2.3,2.6A2.41,2.41,0,0,1,76.7,29.65Z"/><path class="cls-1" d="M101.1,18.55H96.6v12.5h1.9v-4.7h2.6a4,4,0,0,0,4.1-3.9A4,4,0,0,0,101.1,18.55Zm0,6H98.4v-4.3h2.7a2.15,2.15,0,1,1,0,4.3Z"/><rect class="cls-1" x="106.2" y="18.55" width="1.9" height="12.5"/><path class="cls-1" d="M92.3,25.45a3.89,3.89,0,0,0-3.6-2.7,4,4,0,0,0-4,4.3,4.18,4.18,0,0,0,4.2,4.3,4.1,4.1,0,0,0,3.5-1.9l-1.4-1a2.44,2.44,0,0,1-2.1,1.2,2.17,2.17,0,0,1-2.1-1.3L92.5,26ZM86.5,27a2.43,2.43,0,0,1,2.2-2.5,1.77,1.77,0,0,1,1.6.9Z"/><path class="cls-1" d="M67.4,22.75a4.21,4.21,0,0,0-4.3,4.3,4.27,4.27,0,0,0,4.3,4.3,4.3,4.3,0,0,0,0-8.6Zm0,6.9a2.61,2.61,0,0,1,0-5.2,2.42,2.42,0,0,1,2.4,2.6A2.48,2.48,0,0,1,67.4,29.65Z"/><path class="cls-1" d="M58.1,22.75a4.21,4.21,0,0,0-4.3,4.3,4.27,4.27,0,0,0,4.3,4.3,4.21,4.21,0,0,0,4.3-4.3A4.27,4.27,0,0,0,58.1,22.75Zm0,6.9a2.61,2.61,0,0,1,0-5.2,2.42,2.42,0,0,1,2.4,2.6A2.48,2.48,0,0,1,58.1,29.65Z"/><path class="cls-1" d="M31,20.05l-4.6-2.6-3.6,3.6,3.6,3.6,4.6-2.6a1.43,1.43,0,0,0,.8-1C31.8,20.65,31.5,20.35,31,20.05Z"/><path class="cls-1" d="M10.7,33.35a3.71,3.71,0,0,0,.9-.2l13.9-7.9-3.3-3.4Z"/><path class="cls-1" d="M9.8,9.35c0,.2-.1.4-.1.6v22.1a1.27,1.27,0,0,0,.1.6l11.6-11.6Z"/><path class="cls-1" d="M25.5,16.85,11.5,9a1.49,1.49,0,0,0-.9-.2l11.6,11.4Z"/></g></g></svg>